<svg width="121" height="30" viewBox="0 0 121 30" fill="none" xmlns="http://www.w3.org/2000/svg">
<g clip-path="url(#clip0_381_1533)">
<path d="M38.842 5.80811C40.5287 5.80811 41.8707 6.15278 42.868 6.84211C43.8653 7.51678 44.364 8.52878 44.364 9.87811C44.364 10.8754 44.1147 11.7114 43.616 12.3861C43.132 13.0461 42.4647 13.5448 41.614 13.8821C40.778 14.2048 39.8173 14.3661 38.732 14.3661L38.226 12.6501C39.5607 12.6501 40.7413 12.8334 41.768 13.2001C42.8093 13.5668 43.6307 14.0948 44.232 14.7841C44.8333 15.4588 45.134 16.2728 45.134 17.2261C45.134 18.1061 44.9727 18.8541 44.65 19.4701C44.342 20.0714 43.9167 20.5628 43.374 20.9441C42.846 21.3108 42.2447 21.5821 41.57 21.7581C40.8953 21.9194 40.1987 22.0001 39.48 22.0001H34.09V5.80811H38.842ZM39.216 12.4301C39.8467 12.4301 40.3087 12.2394 40.602 11.8581C40.91 11.4768 41.064 11.0441 41.064 10.5601C41.064 10.0028 40.8733 9.58478 40.492 9.30611C40.1253 9.02744 39.6267 8.8881 38.996 8.8881H37.28V12.4301H39.216ZM39.326 19.0301C39.7953 19.0301 40.2207 18.9714 40.602 18.8541C40.9833 18.7221 41.284 18.5241 41.504 18.2601C41.724 17.9814 41.834 17.6368 41.834 17.2261C41.834 16.7568 41.702 16.4048 41.438 16.1701C41.174 15.9208 40.8293 15.7521 40.404 15.6641C39.9933 15.5614 39.5607 15.5101 39.106 15.5101H37.28V19.0301H39.326ZM46.7941 5.80811H57.8381V8.8881H49.9841V12.3421H56.9361V15.4221H49.9841V18.9201H58.1461V22.0001H46.7941V5.80811ZM59.9065 5.80811H70.9505V8.8881H63.0965V12.3421H70.0485V15.4221H63.0965V18.9201H71.2585V22.0001H59.9065V5.80811Z" fill="#202020"/>
<path d="M73.0188 5.80792H76.2088V18.9199H83.8208V21.9999H73.0188V5.80792ZM85.5726 5.80792H88.7626V21.9999H85.5726V5.80792ZM105.9 22.6599L93.6237 11.5719L94.5697 12.0999L94.6357 21.9999H91.4017V5.16992H91.5337L103.546 16.2139L102.842 15.9059L102.776 5.80792H105.988V22.6599H105.9ZM108.618 5.80792H119.662V8.88792H111.808V12.3419H118.76V15.4219H111.808V18.9199H119.97V21.9999H108.618V5.80792Z" fill="#202020"/>
<path d="M121 24H34V29H121V24Z" fill="#202020"/>
<path d="M0.388393 18.3951C0.133929 17.2567 0 16.1049 0 14.9531C0 6.69643 6.68304 0 14.9397 0C16.0513 0 17.1696 0.133929 18.2411 0.368304C9.97768 3.51562 3.47545 10.1116 0.388393 18.3951ZM26.6987 5.72545C25.7812 4.55357 24.7098 3.53571 23.4978 2.69196C13.4799 5.65848 5.66518 13.5469 2.75893 23.5848C3.59598 24.7969 4.63393 25.9687 5.78571 26.8661C8.67187 16.7344 16.5804 8.67187 26.6987 5.72545ZM27.7567 22.6473C28.7745 20.9665 29.4576 19.0513 29.7321 17.1027C24.4152 19.9754 20.0223 24.5089 17.1696 29.846C19.1786 29.5513 21.1138 28.8214 22.8348 27.75C25.1786 28.6272 27.5826 29.3772 30 30C29.3772 27.5558 28.6339 25.0112 27.7567 22.6473ZM29.7455 12.904C29.5714 11.5982 29.2165 10.3125 28.6875 9.10045C19.4531 12.1674 12.1875 19.5871 9.1808 28.8616C10.3929 29.3705 11.6585 29.6987 12.971 29.8795C16.0714 22.2388 22.1317 16.0312 29.7455 12.904Z" fill="#202020"/>
</g>
<defs>
<clipPath id="clip0_381_1533">
<rect width="121" height="30" fill="white"/>
</clipPath>
</defs>
</svg>
